<mxfile host="Electron" agent="Mozilla/5.0 (Windows NT 10.0; Win64; x64) AppleWebKit/537.36 (KHTML, like Gecko) draw.io/25.0.1 Chrome/128.0.6613.186 Electron/32.2.6 Safari/537.36" version="25.0.1">
  <diagram name="Page-1" id="b-fJt9tmQqpWP-_yPkiX">
    <mxGraphModel dx="1114" dy="720" grid="1" gridSize="10" guides="1" tooltips="1" connect="1" arrows="1" fold="1" page="1" pageScale="1" pageWidth="850" pageHeight="1100" math="0" shadow="0">
      <root>
        <mxCell id="0" />
        <mxCell id="1" parent="0" />
        <mxCell id="KNsyWZTfcX3dfKMEEcUA-5" value="User" style="swimlane;fontStyle=0;align=center;verticalAlign=top;childLayout=stackLayout;horizontal=1;startSize=55;horizontalStack=0;resizeParent=1;resizeParentMax=0;resizeLast=0;collapsible=0;marginBottom=0;html=1;whiteSpace=wrap;" parent="1" vertex="1">
          <mxGeometry x="450" y="500" width="140" height="200" as="geometry" />
        </mxCell>
        <mxCell id="KNsyWZTfcX3dfKMEEcUA-6" value="&lt;div&gt;# trn: int&lt;br&gt;&lt;/div&gt;# fullName: Name&lt;div&gt;&amp;nbsp;# dob: Date&lt;/div&gt;&lt;div&gt;# addr: Address&lt;/div&gt;&lt;div&gt;# email: String&lt;/div&gt;&lt;div&gt;# contactNum: String&lt;/div&gt;&lt;div&gt;#gender: String&lt;/div&gt;&lt;div&gt;&lt;br&gt;&lt;/div&gt;" style="text;html=1;strokeColor=none;fillColor=none;align=center;verticalAlign=middle;spacingLeft=4;spacingRight=4;overflow=hidden;rotatable=0;points=[[0,0.5],[1,0.5]];portConstraint=eastwest;whiteSpace=wrap;" parent="KNsyWZTfcX3dfKMEEcUA-5" vertex="1">
          <mxGeometry y="55" width="140" height="105" as="geometry" />
        </mxCell>
        <mxCell id="KNsyWZTfcX3dfKMEEcUA-10" value="" style="line;strokeWidth=1;fillColor=none;align=left;verticalAlign=middle;spacingTop=-1;spacingLeft=3;spacingRight=3;rotatable=0;labelPosition=right;points=[];portConstraint=eastwest;" parent="KNsyWZTfcX3dfKMEEcUA-5" vertex="1">
          <mxGeometry y="160" width="140" height="8" as="geometry" />
        </mxCell>
        <mxCell id="KNsyWZTfcX3dfKMEEcUA-11" value="+Info(): void" style="text;html=1;strokeColor=none;fillColor=none;align=center;verticalAlign=middle;spacingLeft=4;spacingRight=4;overflow=hidden;rotatable=0;points=[[0,0.5],[1,0.5]];portConstraint=eastwest;whiteSpace=wrap;" parent="KNsyWZTfcX3dfKMEEcUA-5" vertex="1">
          <mxGeometry y="168" width="140" height="32" as="geometry" />
        </mxCell>
        <mxCell id="KNsyWZTfcX3dfKMEEcUA-13" value="Name" style="swimlane;fontStyle=0;align=center;verticalAlign=top;childLayout=stackLayout;horizontal=1;startSize=55;horizontalStack=0;resizeParent=1;resizeParentMax=0;resizeLast=0;collapsible=0;marginBottom=0;html=1;whiteSpace=wrap;" parent="1" vertex="1">
          <mxGeometry x="50" y="300" width="140" height="295" as="geometry" />
        </mxCell>
        <mxCell id="KNsyWZTfcX3dfKMEEcUA-14" value="&lt;div&gt;- firstName: String&lt;/div&gt;&lt;div&gt;- lastName: String&lt;/div&gt;" style="text;html=1;strokeColor=none;fillColor=none;align=center;verticalAlign=middle;spacingLeft=4;spacingRight=4;overflow=hidden;rotatable=0;points=[[0,0.5],[1,0.5]];portConstraint=eastwest;whiteSpace=wrap;" parent="KNsyWZTfcX3dfKMEEcUA-13" vertex="1">
          <mxGeometry y="55" width="140" height="70" as="geometry" />
        </mxCell>
        <mxCell id="KNsyWZTfcX3dfKMEEcUA-15" value="" style="line;strokeWidth=1;fillColor=none;align=left;verticalAlign=middle;spacingTop=-1;spacingLeft=3;spacingRight=3;rotatable=0;labelPosition=right;points=[];portConstraint=eastwest;" parent="KNsyWZTfcX3dfKMEEcUA-13" vertex="1">
          <mxGeometry y="125" width="140" height="8" as="geometry" />
        </mxCell>
        <mxCell id="KNsyWZTfcX3dfKMEEcUA-16" value="+ Name()&lt;div&gt;+ Name (String, String)&lt;/div&gt;&lt;div&gt;+GetFirstName (): String&lt;/div&gt;&lt;div&gt;+ SetFirstName (String): void&lt;/div&gt;&lt;div&gt;+ GetLastName (): String&lt;/div&gt;&lt;div&gt;+ SetLastName (String): void&lt;/div&gt;&lt;div&gt;+ ToString(): void&lt;/div&gt;" style="text;html=1;strokeColor=none;fillColor=none;align=center;verticalAlign=middle;spacingLeft=4;spacingRight=4;overflow=hidden;rotatable=0;points=[[0,0.5],[1,0.5]];portConstraint=eastwest;whiteSpace=wrap;" parent="KNsyWZTfcX3dfKMEEcUA-13" vertex="1">
          <mxGeometry y="133" width="140" height="162" as="geometry" />
        </mxCell>
        <mxCell id="Hfk62kWX0MrwmY5YQLwM-7" style="edgeStyle=orthogonalEdgeStyle;rounded=0;orthogonalLoop=1;jettySize=auto;html=1;exitX=0.5;exitY=0;exitDx=0;exitDy=0;endArrow=none;endFill=0;" edge="1" parent="1" source="KNsyWZTfcX3dfKMEEcUA-29">
          <mxGeometry relative="1" as="geometry">
            <mxPoint x="510" y="700" as="targetPoint" />
          </mxGeometry>
        </mxCell>
        <mxCell id="KNsyWZTfcX3dfKMEEcUA-29" value="JCFOfficer" style="swimlane;fontStyle=0;align=center;verticalAlign=top;childLayout=stackLayout;horizontal=1;startSize=55;horizontalStack=0;resizeParent=1;resizeParentMax=0;resizeLast=0;collapsible=0;marginBottom=0;html=1;whiteSpace=wrap;" parent="1" vertex="1">
          <mxGeometry x="260" y="820" width="230" height="360" as="geometry" />
        </mxCell>
        <mxCell id="KNsyWZTfcX3dfKMEEcUA-30" value="- policebadgeNum: int&lt;div&gt;- policeStation: String&lt;/div&gt;" style="text;html=1;strokeColor=none;fillColor=none;align=center;verticalAlign=middle;spacingLeft=4;spacingRight=4;overflow=hidden;rotatable=0;points=[[0,0.5],[1,0.5]];portConstraint=eastwest;whiteSpace=wrap;" parent="KNsyWZTfcX3dfKMEEcUA-29" vertex="1">
          <mxGeometry y="55" width="230" height="85" as="geometry" />
        </mxCell>
        <mxCell id="KNsyWZTfcX3dfKMEEcUA-31" value="" style="line;strokeWidth=1;fillColor=none;align=left;verticalAlign=middle;spacingTop=-1;spacingLeft=3;spacingRight=3;rotatable=0;labelPosition=right;points=[];portConstraint=eastwest;" parent="KNsyWZTfcX3dfKMEEcUA-29" vertex="1">
          <mxGeometry y="140" width="230" height="8" as="geometry" />
        </mxCell>
        <mxCell id="KNsyWZTfcX3dfKMEEcUA-32" value="+ JCFOfficer()&lt;div&gt;+ JCFOfficer(Name, Date, int, Address, String, String,String, int, String)&lt;/div&gt;&lt;div&gt;+ JCFOfficer(JCFOfficer)&lt;/div&gt;&lt;div&gt;+ GetBadgeNum(): int&lt;/div&gt;&lt;div&gt;+ SetBadgeNum(int): void&lt;/div&gt;&lt;div&gt;+ GetpoliceStation(): String&lt;/div&gt;&lt;div&gt;+ Info(): void&lt;/div&gt;&lt;div&gt;&lt;span style=&quot;padding: 0px 0px 0px 2px;&quot;&gt;&lt;span style=&quot;font-family: Consolas; font-size: 10pt; white-space: pre;&quot;&gt;+ ToCSV(): void&lt;/span&gt;&lt;/span&gt;&lt;/div&gt;&lt;div&gt;&lt;span style=&quot;padding: 0px 0px 0px 2px;&quot;&gt;&lt;font style=&quot;font-size: 11px;&quot;&gt;&lt;span style=&quot;background-color:#ffffff;padding:0px 0px 0px 2px;&quot;&gt;&lt;span style=&quot;font-family: Consolas; white-space: pre;&quot;&gt;+ DisplayTicketOfficer(): void&lt;/span&gt;&lt;/span&gt;&lt;span style=&quot;font-family: Consolas; white-space: pre;&quot;&gt;&lt;br&gt;&lt;/span&gt;&lt;/font&gt;&lt;/span&gt;&lt;/div&gt;&lt;div&gt;&lt;span style=&quot;padding: 0px 0px 0px 2px;&quot;&gt;&lt;font style=&quot;font-size: 10px;&quot;&gt;&lt;span style=&quot;background-color: rgb(255, 255, 255); padding: 0px 0px 0px 2px;&quot;&gt;&lt;span style=&quot;padding: 0px 0px 0px 2px;&quot;&gt;&lt;span style=&quot;font-family: Consolas; white-space: pre;&quot;&gt;+ DisplayTicketOfficer(Name): void&lt;/span&gt;&lt;/span&gt;&lt;span style=&quot;font-family: Consolas; white-space: pre;&quot;&gt;&lt;br&gt;&lt;/span&gt;&lt;/span&gt;&lt;/font&gt;&lt;/span&gt;&lt;/div&gt;&lt;div&gt;&lt;span style=&quot;padding: 0px 0px 0px 2px;&quot;&gt;&lt;span style=&quot;background-color:#ffffff;padding:0px 0px 0px 2px;&quot;&gt;&lt;span style=&quot;font-family: Consolas; white-space: pre;&quot;&gt;&lt;font style=&quot;font-size: 11px;&quot;&gt;&lt;br&gt;&lt;/font&gt;&lt;/span&gt;&lt;/span&gt;&lt;/span&gt;&lt;/div&gt;" style="text;html=1;strokeColor=none;fillColor=none;align=center;verticalAlign=middle;spacingLeft=4;spacingRight=4;overflow=hidden;rotatable=0;points=[[0,0.5],[1,0.5]];portConstraint=eastwest;whiteSpace=wrap;" parent="KNsyWZTfcX3dfKMEEcUA-29" vertex="1">
          <mxGeometry y="148" width="230" height="212" as="geometry" />
        </mxCell>
        <mxCell id="KNsyWZTfcX3dfKMEEcUA-33" value="Ticket" style="swimlane;fontStyle=0;align=center;verticalAlign=top;childLayout=stackLayout;horizontal=1;startSize=55;horizontalStack=0;resizeParent=1;resizeParentMax=0;resizeLast=0;collapsible=0;marginBottom=0;html=1;whiteSpace=wrap;" parent="1" vertex="1">
          <mxGeometry x="1000" y="1040" width="230" height="950" as="geometry" />
        </mxCell>
        <mxCell id="KNsyWZTfcX3dfKMEEcUA-34" value="&lt;div&gt;- trn: int&lt;/div&gt;&lt;div&gt;- ticketNum: int&lt;/div&gt;&lt;div&gt;- ticketIssueDate: Date&lt;/div&gt;&lt;div&gt;- payDueDate: Date&lt;/div&gt;&lt;div&gt;- offenseCode: int&lt;/div&gt;&lt;div&gt;- offenseDesc: String&lt;/div&gt;&lt;div&gt;- fineAmt: float&lt;/div&gt;&lt;div&gt;-ticketStatDesc: String&lt;/div&gt;&lt;div&gt;-courtDate: Date&lt;/div&gt;&lt;div&gt;-courtTime: Time&lt;/div&gt;&lt;div&gt;-courtLocation: Address&lt;/div&gt;&lt;div&gt;-totalUnpaidTic: float&lt;/div&gt;&lt;div&gt;-totalFineAmt: float&lt;/div&gt;&lt;div&gt;-warrant: Boolean&lt;/div&gt;&lt;div&gt;&amp;nbsp;&lt;/div&gt;&lt;div&gt;&lt;br&gt;&lt;/div&gt;" style="text;html=1;strokeColor=none;fillColor=none;align=center;verticalAlign=middle;spacingLeft=4;spacingRight=4;overflow=hidden;rotatable=0;points=[[0,0.5],[1,0.5]];portConstraint=eastwest;whiteSpace=wrap;" parent="KNsyWZTfcX3dfKMEEcUA-33" vertex="1">
          <mxGeometry y="55" width="230" height="265" as="geometry" />
        </mxCell>
        <mxCell id="KNsyWZTfcX3dfKMEEcUA-35" value="" style="line;strokeWidth=1;fillColor=none;align=left;verticalAlign=middle;spacingTop=-1;spacingLeft=3;spacingRight=3;rotatable=0;labelPosition=right;points=[];portConstraint=eastwest;" parent="KNsyWZTfcX3dfKMEEcUA-33" vertex="1">
          <mxGeometry y="320" width="230" height="8" as="geometry" />
        </mxCell>
        <mxCell id="KNsyWZTfcX3dfKMEEcUA-36" value="&lt;div&gt;+ Ticket ()&lt;/div&gt;&lt;div&gt;+ Ticket (int, int, Date, Date, int, String, float, String, Date, String, Address, float, float, Boolean)&lt;/div&gt;&lt;div&gt;+ Ticket (Ticket)&lt;/div&gt;&lt;div&gt;+ GetTrn(): int&lt;/div&gt;&lt;div&gt;+ SetTrn(int): void&lt;/div&gt;&lt;div&gt;+ GetTicketNum (): int&lt;/div&gt;&lt;div&gt;+ SetTicketNum(int): void&lt;/div&gt;&lt;div&gt;+ GetLicense(): int&lt;/div&gt;&lt;div&gt;+ SetLicense(int): void&lt;/div&gt;&lt;div&gt;+ GetTicketIssueDate (): Date&lt;/div&gt;&lt;div&gt;+ SetTicketIssueDate(Date):void&lt;/div&gt;&lt;div&gt;+ GetPayDueDate(): Date&lt;/div&gt;&lt;div&gt;+ SetPayDueDate(Date): void&lt;/div&gt;&lt;div&gt;+ GetOffenseCode(): int&lt;/div&gt;&lt;div&gt;+ SetOffenseCode(int): void&lt;/div&gt;&lt;div&gt;+ GetOffenseDesc(): String&lt;/div&gt;&lt;div&gt;+ SetOffenseDesc(String): void&lt;/div&gt;&lt;div&gt;+ GetFineAmt(): float&lt;/div&gt;&lt;div&gt;+ SetFineAmt(float): void&lt;/div&gt;&lt;div&gt;+ GetTicketStatDesc(): String&lt;/div&gt;&lt;div&gt;+ SetTicketStatDesc(String): void&lt;/div&gt;&lt;div&gt;+ GetCourtDate (): Date&lt;/div&gt;&lt;div&gt;+ SetCourtDate (Date): void&lt;/div&gt;&lt;div&gt;+GetCourtTime(): Time&lt;/div&gt;&lt;div&gt;+ SetCourtTime(Time): Time&lt;/div&gt;&lt;div&gt;+ GetCourtLocation(): Address&lt;/div&gt;&lt;div&gt;+ SetCourtLocation(Address): void&lt;/div&gt;&lt;div&gt;+ GetTotalUnpaidTic(): float&lt;/div&gt;&lt;div&gt;+ SetTotalUnpaidTic(float): void&lt;/div&gt;&lt;div&gt;+ GetTotalFineAmt(): float&lt;/div&gt;&lt;div&gt;+ SetTotalFineAmt(float): void&lt;/div&gt;&lt;div&gt;+ GetWarrant(): Boolean&lt;/div&gt;&lt;div&gt;+ SetWarrant(Boolean): void&lt;/div&gt;&lt;div&gt;&lt;br&gt;&lt;/div&gt;&lt;div&gt;&lt;br&gt;&lt;/div&gt;&lt;div&gt;+ToCSV(): void&lt;/div&gt;&lt;div&gt;&lt;span style=&quot;background-color:#ffffff;padding:0px 0px 0px 2px;&quot;&gt;&lt;span style=&quot;font-family: Consolas; white-space: pre;&quot;&gt;&lt;font style=&quot;font-size: 12px;&quot;&gt;+DisplayTicket(): void&lt;/font&gt;&lt;/span&gt;&lt;/span&gt;&lt;br&gt;&lt;/div&gt;+ToString(): void" style="text;html=1;strokeColor=none;fillColor=none;align=center;verticalAlign=middle;spacingLeft=4;spacingRight=4;overflow=hidden;rotatable=0;points=[[0,0.5],[1,0.5]];portConstraint=eastwest;whiteSpace=wrap;" parent="KNsyWZTfcX3dfKMEEcUA-33" vertex="1">
          <mxGeometry y="328" width="230" height="622" as="geometry" />
        </mxCell>
        <mxCell id="KNsyWZTfcX3dfKMEEcUA-37" value="Address" style="swimlane;fontStyle=0;align=center;verticalAlign=top;childLayout=stackLayout;horizontal=1;startSize=55;horizontalStack=0;resizeParent=1;resizeParentMax=0;resizeLast=0;collapsible=0;marginBottom=0;html=1;whiteSpace=wrap;" parent="1" vertex="1">
          <mxGeometry x="20" y="620" width="170" height="380" as="geometry" />
        </mxCell>
        <mxCell id="KNsyWZTfcX3dfKMEEcUA-38" value="&lt;div&gt;- streetNum: int&lt;/div&gt;&lt;div&gt;- streetName: String&lt;/div&gt;&lt;div&gt;- community: String&lt;/div&gt;&lt;div&gt;- parish: String&lt;/div&gt;" style="text;html=1;strokeColor=none;fillColor=none;align=center;verticalAlign=middle;spacingLeft=4;spacingRight=4;overflow=hidden;rotatable=0;points=[[0,0.5],[1,0.5]];portConstraint=eastwest;whiteSpace=wrap;" parent="KNsyWZTfcX3dfKMEEcUA-37" vertex="1">
          <mxGeometry y="55" width="170" height="85" as="geometry" />
        </mxCell>
        <mxCell id="KNsyWZTfcX3dfKMEEcUA-39" value="" style="line;strokeWidth=1;fillColor=none;align=left;verticalAlign=middle;spacingTop=-1;spacingLeft=3;spacingRight=3;rotatable=0;labelPosition=right;points=[];portConstraint=eastwest;" parent="KNsyWZTfcX3dfKMEEcUA-37" vertex="1">
          <mxGeometry y="140" width="170" height="8" as="geometry" />
        </mxCell>
        <mxCell id="KNsyWZTfcX3dfKMEEcUA-40" value="+ Address()&lt;div&gt;&lt;div&gt;+ Address(int, String, String, String)&lt;/div&gt;&lt;div&gt;+ Address(Address)&lt;/div&gt;&lt;div&gt;+ GetStreetNum() : int&lt;/div&gt;&lt;div&gt;+ SetStreetNum(int): void&lt;/div&gt;&lt;div&gt;+ GetStreetName(): String&lt;/div&gt;&lt;div&gt;+ SetStreetName(String): void&lt;/div&gt;&lt;div&gt;+ GetCommunity (): String&lt;/div&gt;&lt;div&gt;+ SetCommunity (String): void&lt;/div&gt;&lt;div&gt;+ GetParish(): String&lt;/div&gt;&lt;div&gt;+ SetParish(String): void&lt;/div&gt;&lt;div&gt;+ ToString (): void&lt;/div&gt;&lt;div&gt;&lt;br&gt;&lt;/div&gt;&lt;div&gt;&lt;br&gt;&lt;/div&gt;&lt;div&gt;&lt;br&gt;&lt;/div&gt;&lt;div&gt;&lt;div&gt;&lt;br&gt;&lt;/div&gt;&lt;/div&gt;&lt;/div&gt;" style="text;html=1;strokeColor=none;fillColor=none;align=center;verticalAlign=middle;spacingLeft=4;spacingRight=4;overflow=hidden;rotatable=0;points=[[0,0.5],[1,0.5]];portConstraint=eastwest;whiteSpace=wrap;" parent="KNsyWZTfcX3dfKMEEcUA-37" vertex="1">
          <mxGeometry y="148" width="170" height="232" as="geometry" />
        </mxCell>
        <mxCell id="KNsyWZTfcX3dfKMEEcUA-45" value="Main" style="swimlane;fontStyle=0;align=center;verticalAlign=top;childLayout=stackLayout;horizontal=1;startSize=55;horizontalStack=0;resizeParent=1;resizeParentMax=0;resizeLast=0;collapsible=0;marginBottom=0;html=1;whiteSpace=wrap;" parent="1" vertex="1">
          <mxGeometry x="540" y="1280" width="230" height="230" as="geometry" />
        </mxCell>
        <mxCell id="KNsyWZTfcX3dfKMEEcUA-46" value="&lt;div&gt;+ adminPass: int&lt;/div&gt;" style="text;html=1;strokeColor=none;fillColor=none;align=center;verticalAlign=middle;spacingLeft=4;spacingRight=4;overflow=hidden;rotatable=0;points=[[0,0.5],[1,0.5]];portConstraint=eastwest;whiteSpace=wrap;" parent="KNsyWZTfcX3dfKMEEcUA-45" vertex="1">
          <mxGeometry y="55" width="230" height="65" as="geometry" />
        </mxCell>
        <mxCell id="KNsyWZTfcX3dfKMEEcUA-47" value="" style="line;strokeWidth=1;fillColor=none;align=left;verticalAlign=middle;spacingTop=-1;spacingLeft=3;spacingRight=3;rotatable=0;labelPosition=right;points=[];portConstraint=eastwest;" parent="KNsyWZTfcX3dfKMEEcUA-45" vertex="1">
          <mxGeometry y="120" width="230" height="8" as="geometry" />
        </mxCell>
        <mxCell id="KNsyWZTfcX3dfKMEEcUA-48" value="+ CreateApplication (): void&lt;div&gt;+ UpdateApplication (): void&lt;/div&gt;&lt;div&gt;+ DeleteApplicaton (): void&lt;/div&gt;&lt;div&gt;+ RejectApplication (): void&lt;/div&gt;&lt;div&gt;...&lt;/div&gt;&lt;div&gt;&lt;br&gt;&lt;/div&gt;&lt;div&gt;&lt;br&gt;&lt;/div&gt;" style="text;html=1;strokeColor=none;fillColor=none;align=center;verticalAlign=middle;spacingLeft=4;spacingRight=4;overflow=hidden;rotatable=0;points=[[0,0.5],[1,0.5]];portConstraint=eastwest;whiteSpace=wrap;" parent="KNsyWZTfcX3dfKMEEcUA-45" vertex="1">
          <mxGeometry y="128" width="230" height="102" as="geometry" />
        </mxCell>
        <mxCell id="Hfk62kWX0MrwmY5YQLwM-8" style="edgeStyle=orthogonalEdgeStyle;rounded=0;orthogonalLoop=1;jettySize=auto;html=1;exitX=0.5;exitY=0;exitDx=0;exitDy=0;endArrow=block;endFill=0;endSize=10;" edge="1" parent="1" source="KNsyWZTfcX3dfKMEEcUA-54">
          <mxGeometry relative="1" as="geometry">
            <mxPoint x="510" y="700" as="targetPoint" />
          </mxGeometry>
        </mxCell>
        <mxCell id="Hfk62kWX0MrwmY5YQLwM-16" style="edgeStyle=orthogonalEdgeStyle;rounded=0;orthogonalLoop=1;jettySize=auto;html=1;exitX=1;exitY=0;exitDx=0;exitDy=0;entryX=0;entryY=0.5;entryDx=0;entryDy=0;endArrow=diamondThin;endFill=0;endSize=12;" edge="1" parent="1" source="KNsyWZTfcX3dfKMEEcUA-54" target="8_wE6kGb9j1M_QEQ3OIB-13">
          <mxGeometry relative="1" as="geometry" />
        </mxCell>
        <mxCell id="KNsyWZTfcX3dfKMEEcUA-54" value="Driver" style="swimlane;fontStyle=0;align=center;verticalAlign=top;childLayout=stackLayout;horizontal=1;startSize=55;horizontalStack=0;resizeParent=1;resizeParentMax=0;resizeLast=0;collapsible=0;marginBottom=0;html=1;whiteSpace=wrap;fontSize=12;" parent="1" vertex="1">
          <mxGeometry x="550" y="820" width="240" height="340" as="geometry" />
        </mxCell>
        <mxCell id="KNsyWZTfcX3dfKMEEcUA-55" value="&lt;div&gt;&lt;br&gt;&lt;/div&gt;&lt;div&gt;&lt;br&gt;&lt;/div&gt;&lt;div&gt;&lt;br&gt;&lt;/div&gt;" style="text;html=1;strokeColor=none;fillColor=none;align=center;verticalAlign=middle;spacingLeft=4;spacingRight=4;overflow=hidden;rotatable=0;points=[[0,0.5],[1,0.5]];portConstraint=eastwest;whiteSpace=wrap;" parent="KNsyWZTfcX3dfKMEEcUA-54" vertex="1">
          <mxGeometry y="55" width="240" height="85" as="geometry" />
        </mxCell>
        <mxCell id="KNsyWZTfcX3dfKMEEcUA-56" value="" style="line;strokeWidth=1;fillColor=none;align=left;verticalAlign=middle;spacingTop=-1;spacingLeft=3;spacingRight=3;rotatable=0;labelPosition=right;points=[];portConstraint=eastwest;" parent="KNsyWZTfcX3dfKMEEcUA-54" vertex="1">
          <mxGeometry y="140" width="240" height="8" as="geometry" />
        </mxCell>
        <mxCell id="KNsyWZTfcX3dfKMEEcUA-57" value="&lt;div&gt;+ Owner()&lt;/div&gt;&lt;div&gt;+ Owner (Name, Date, int, Address, String, String, String)&lt;/div&gt;&lt;div&gt;+ Owner (Owner)&lt;/div&gt;&lt;div&gt;&lt;span style=&quot;padding: 0px 0px 0px 2px;&quot;&gt;&lt;span style=&quot;font-family: Consolas; font-size: 10pt; white-space: pre;&quot;&gt;+ToCSV():void&lt;/span&gt;&lt;/span&gt;&lt;br&gt;&lt;/div&gt;+Info(): void&lt;div&gt;&lt;div&gt;&lt;span style=&quot;padding: 0px 0px 0px 2px;&quot;&gt;&lt;span style=&quot;background-color: rgb(255, 255, 255); padding: 0px 0px 0px 2px;&quot;&gt;&lt;span style=&quot;font-family: Consolas; white-space: pre;&quot;&gt;&lt;font style=&quot;font-size: 11px;&quot;&gt;+ DisplayTicketDriver():void&lt;/font&gt;&lt;/span&gt;&lt;/span&gt;&lt;span style=&quot;font-family: Consolas; font-size: 10pt; white-space: pre;&quot;&gt;&lt;br&gt;&lt;/span&gt;&lt;/span&gt;&lt;/div&gt;&lt;div&gt;&lt;span style=&quot;padding: 0px 0px 0px 2px;&quot;&gt;&lt;span style=&quot;background-color: rgb(255, 255, 255); padding: 0px 0px 0px 2px;&quot;&gt;&lt;span style=&quot;font-family: Consolas; font-size: 11px; white-space: pre;&quot;&gt;+DisplayTicketDriver(int, Name):void&lt;/span&gt;&lt;/span&gt;&lt;/span&gt;&lt;/div&gt;&lt;/div&gt;" style="text;html=1;strokeColor=none;fillColor=none;align=center;verticalAlign=middle;spacingLeft=4;spacingRight=4;overflow=hidden;rotatable=0;points=[[0,0.5],[1,0.5]];portConstraint=eastwest;whiteSpace=wrap;" parent="KNsyWZTfcX3dfKMEEcUA-54" vertex="1">
          <mxGeometry y="148" width="240" height="192" as="geometry" />
        </mxCell>
        <mxCell id="8_wE6kGb9j1M_QEQ3OIB-6" value="PPVLicense" style="swimlane;fontStyle=0;align=center;verticalAlign=top;childLayout=stackLayout;horizontal=1;startSize=55;horizontalStack=0;resizeParent=1;resizeParentMax=0;resizeLast=0;collapsible=0;marginBottom=0;html=1;whiteSpace=wrap;" parent="1" vertex="1">
          <mxGeometry x="1010" y="540" width="190" height="450" as="geometry" />
        </mxCell>
        <mxCell id="8_wE6kGb9j1M_QEQ3OIB-7" value="&lt;div&gt;- trn: int&lt;/div&gt;- badgeNum: String&lt;div&gt;-badgeIssueDate: Date&lt;/div&gt;&lt;div&gt;-badgeExpireDate: Date&lt;/div&gt;&lt;div&gt;- badgeParish: String&lt;/div&gt;" style="text;html=1;strokeColor=none;fillColor=none;align=center;verticalAlign=middle;spacingLeft=4;spacingRight=4;overflow=hidden;rotatable=0;points=[[0,0.5],[1,0.5]];portConstraint=eastwest;whiteSpace=wrap;" parent="8_wE6kGb9j1M_QEQ3OIB-6" vertex="1">
          <mxGeometry y="55" width="190" height="105" as="geometry" />
        </mxCell>
        <mxCell id="8_wE6kGb9j1M_QEQ3OIB-8" value="" style="line;strokeWidth=1;fillColor=none;align=left;verticalAlign=middle;spacingTop=-1;spacingLeft=3;spacingRight=3;rotatable=0;labelPosition=right;points=[];portConstraint=eastwest;" parent="8_wE6kGb9j1M_QEQ3OIB-6" vertex="1">
          <mxGeometry y="160" width="190" height="8" as="geometry" />
        </mxCell>
        <mxCell id="8_wE6kGb9j1M_QEQ3OIB-9" value="&lt;div&gt;&lt;br&gt;&lt;/div&gt;+ PPVLicense(PPVLicense)&lt;div&gt;+ PPVLicense (int, String, Date, Date, String)&lt;/div&gt;&lt;div&gt;+ PPVLicense(PPVLicense)&lt;/div&gt;&lt;div&gt;&lt;div&gt;+ GetTrn(): int&lt;/div&gt;&lt;div&gt;+ SetTrn(int): void&lt;/div&gt;&lt;/div&gt;&lt;div&gt;+GetBadgeNum(): int&lt;/div&gt;&lt;div&gt;+SetBadgeNum(int): void&lt;/div&gt;&lt;div&gt;+GetBadgeIssueDate(): Date&lt;/div&gt;&lt;div&gt;+SetBadgeIssueDate(Date):void&lt;/div&gt;&lt;div&gt;+ GetBadgeExpireDate(): Date&lt;/div&gt;&lt;div&gt;+ SetBadgeExpireDate(Date): void&lt;/div&gt;&lt;div&gt;+ GetBadgeParish(): String&lt;/div&gt;&lt;div&gt;+ SetBadgeParish(String): void&lt;/div&gt;&lt;div&gt;+ ToString(): void&lt;/div&gt;&lt;div&gt;+ ToCSV(): void&lt;/div&gt;" style="text;html=1;strokeColor=none;fillColor=none;align=center;verticalAlign=middle;spacingLeft=4;spacingRight=4;overflow=hidden;rotatable=0;points=[[0,0.5],[1,0.5]];portConstraint=eastwest;whiteSpace=wrap;" parent="8_wE6kGb9j1M_QEQ3OIB-6" vertex="1">
          <mxGeometry y="168" width="190" height="282" as="geometry" />
        </mxCell>
        <mxCell id="8_wE6kGb9j1M_QEQ3OIB-10" value="Demerit" style="swimlane;fontStyle=0;align=center;verticalAlign=top;childLayout=stackLayout;horizontal=1;startSize=55;horizontalStack=0;resizeParent=1;resizeParentMax=0;resizeLast=0;collapsible=0;marginBottom=0;html=1;whiteSpace=wrap;" parent="1" vertex="1">
          <mxGeometry x="1020" y="10" width="190" height="490" as="geometry" />
        </mxCell>
        <mxCell id="8_wE6kGb9j1M_QEQ3OIB-11" value="&lt;div&gt;-trn: int&lt;/div&gt;-demeritCode: int&lt;div&gt;- offfenseDesc: String&lt;/div&gt;&lt;div&gt;-demeritPoints: int&lt;/div&gt;&lt;div&gt;-demeritFinequery: bool&lt;/div&gt;&lt;div&gt;- fine: float&lt;/div&gt;" style="text;html=1;strokeColor=none;fillColor=none;align=center;verticalAlign=middle;spacingLeft=4;spacingRight=4;overflow=hidden;rotatable=0;points=[[0,0.5],[1,0.5]];portConstraint=eastwest;whiteSpace=wrap;" parent="8_wE6kGb9j1M_QEQ3OIB-10" vertex="1">
          <mxGeometry y="55" width="190" height="105" as="geometry" />
        </mxCell>
        <mxCell id="8_wE6kGb9j1M_QEQ3OIB-12" value="" style="line;strokeWidth=1;fillColor=none;align=left;verticalAlign=middle;spacingTop=-1;spacingLeft=3;spacingRight=3;rotatable=0;labelPosition=right;points=[];portConstraint=eastwest;" parent="8_wE6kGb9j1M_QEQ3OIB-10" vertex="1">
          <mxGeometry y="160" width="190" height="8" as="geometry" />
        </mxCell>
        <mxCell id="8_wE6kGb9j1M_QEQ3OIB-13" value="&lt;div&gt;&lt;br&gt;&lt;/div&gt;+ Demerit()&lt;div&gt;+ Demerit(int demeritCode, String offenseDesc, demeritPoints, bool demeritFinequery, float fine )&lt;/div&gt;&lt;div&gt;+ Demerit(Demerit)&lt;/div&gt;&lt;div&gt;+ GetTrn(): int&lt;/div&gt;&lt;div&gt;+ SetTrn(int): void&lt;/div&gt;&lt;div&gt;+ GetDemeritCode(): int&lt;/div&gt;&lt;div&gt;+SetDemeritCode(int): void&lt;/div&gt;&lt;div&gt;+ GetOffenseDesc (): String&lt;/div&gt;&lt;div&gt;+ SetOffenseDesc(String): void&lt;/div&gt;&lt;div&gt;+ GetDemeritPoints(): int&lt;/div&gt;&lt;div&gt;+ SetDemeritPoins(int): void&lt;/div&gt;&lt;div&gt;+ GetDemeritFineQuery (): bool&lt;/div&gt;&lt;div&gt;+ SetDemeritFineQuery (bool): void&lt;/div&gt;&lt;div&gt;+ GetFine(): float&lt;/div&gt;&lt;div&gt;+SetFine(float): void&lt;br&gt;&lt;div&gt;+ ToString(): void&lt;/div&gt;&lt;/div&gt;&lt;div&gt;+ ToCSV(): void&lt;/div&gt;" style="text;html=1;strokeColor=none;fillColor=none;align=center;verticalAlign=middle;spacingLeft=4;spacingRight=4;overflow=hidden;rotatable=0;points=[[0,0.5],[1,0.5]];portConstraint=eastwest;whiteSpace=wrap;" parent="8_wE6kGb9j1M_QEQ3OIB-10" vertex="1">
          <mxGeometry y="168" width="190" height="322" as="geometry" />
        </mxCell>
        <mxCell id="Hfk62kWX0MrwmY5YQLwM-10" style="edgeStyle=orthogonalEdgeStyle;rounded=0;orthogonalLoop=1;jettySize=auto;html=1;exitX=0;exitY=0.5;exitDx=0;exitDy=0;entryX=1.004;entryY=0.098;entryDx=0;entryDy=0;entryPerimeter=0;endArrow=diamondThin;endFill=1;endSize=12;" edge="1" parent="1" source="KNsyWZTfcX3dfKMEEcUA-11" target="KNsyWZTfcX3dfKMEEcUA-38">
          <mxGeometry relative="1" as="geometry" />
        </mxCell>
        <mxCell id="Hfk62kWX0MrwmY5YQLwM-12" style="edgeStyle=orthogonalEdgeStyle;rounded=0;orthogonalLoop=1;jettySize=auto;html=1;exitX=0;exitY=0.25;exitDx=0;exitDy=0;entryX=1.005;entryY=0.722;entryDx=0;entryDy=0;entryPerimeter=0;endArrow=diamondThin;endFill=1;endSize=12;" edge="1" parent="1" source="KNsyWZTfcX3dfKMEEcUA-5" target="KNsyWZTfcX3dfKMEEcUA-16">
          <mxGeometry relative="1" as="geometry" />
        </mxCell>
        <mxCell id="Hfk62kWX0MrwmY5YQLwM-13" style="edgeStyle=orthogonalEdgeStyle;rounded=0;orthogonalLoop=1;jettySize=auto;html=1;exitX=1;exitY=0.5;exitDx=0;exitDy=0;entryX=-0.003;entryY=0.026;entryDx=0;entryDy=0;entryPerimeter=0;endArrow=diamondThin;endFill=0;endSize=12;" edge="1" parent="1" source="KNsyWZTfcX3dfKMEEcUA-57" target="KNsyWZTfcX3dfKMEEcUA-33">
          <mxGeometry relative="1" as="geometry" />
        </mxCell>
        <mxCell id="Hfk62kWX0MrwmY5YQLwM-15" style="edgeStyle=orthogonalEdgeStyle;rounded=0;orthogonalLoop=1;jettySize=auto;html=1;exitX=1;exitY=0.5;exitDx=0;exitDy=0;entryX=-0.021;entryY=0.743;entryDx=0;entryDy=0;entryPerimeter=0;endArrow=diamondThin;endFill=0;endSize=12;" edge="1" parent="1" source="KNsyWZTfcX3dfKMEEcUA-55" target="8_wE6kGb9j1M_QEQ3OIB-9">
          <mxGeometry relative="1" as="geometry" />
        </mxCell>
      </root>
    </mxGraphModel>
  </diagram>
</mxfile>
